<svg width="39" height="39" viewBox="0 0 39 39" fill="none" xmlns="http://www.w3.org/2000/svg">
<path d="M19.27 38.54C29.9125 38.54 38.54 29.9125 38.54 19.27C38.54 8.62748 29.9125 0 19.27 0C8.62743 0 0 8.62748 0 19.27C0 29.9125 8.62743 38.54 19.27 38.54Z" fill="white"/>
<path d="M22.65 23.6L23.75 26.57L26.72 27.67L23.75 28.77L22.65 31.74L21.55 28.77L18.58 27.67L21.55 26.57L22.65 23.6Z" fill="#FFB04B"/>
<path d="M12.86 11.85L15.14 17.99L21.27 20.26L15.14 22.53L12.86 28.67L10.59 22.53L4.45001 20.26L10.59 17.99L12.86 11.85Z" fill="#00ADEE"/>
<path d="M27.07 8.78998L28.62 12.98L32.8 14.53L28.62 16.07L27.07 20.26L25.52 16.07L21.33 14.53L25.52 12.98L27.07 8.78998Z" fill="#FF5211"/>
</svg>
